<svg xmlns="http://www.w3.org/2000/svg" width="24" height="24" fill="currentColor" viewBox="0 0 16 16">
  <path d="M2.273 9.53a.5.5 0 0 1-.135-.734c.379-.774.348-1.547.304-2.049L1.702 6C1.702 10.595 2.195 13.5 4.686 13.5c.666 0 1.175-.31 1.175-.31s.484 1.349 0 1.349c-.45 0-1.748-.812-1.748-2.087C4.113 10.77 4.306 8.863 2.273 9.53z"/>
  <path d="M8.5 1.866a1 1 0 1 0-1 0V3h-2A4.5 4.5 0 0 0 1 7.5V8a1 1 0 0 0 1 1v5.5A3.5 3.5 0 0 0 5.5 18h5a3.5 3.5 0 0 0 3.5-3.5V9a1 1 0 0 0 1-1v-.5A4.5 4.5 0 0 0 10.5 3h-2V1.866zM14 7.5V8H2v-.5A3.5 3.5 0 0 1 5.5 4h5A3.5 3.5 0 0 1 14 7.5z"/>
</svg>